# xmcd
#
# Track frame offsets: 
#        150
#        31058
#        45424
#        77645
#        87507
#        115350
#        139205
#        156876
#        175068
#        205885
#        235665
#        262873
#
# Disc length: 3920 seconds
#
# Revision: 0
# Processed by: cddbd v1.5.2PL0 Copyright (c) Steve Scherf et al.
# Submitted via: ExactAudioCopy v0.95b4
#
DISCID=920f4e0c
DTITLE=carriere - Wirtschaftswirt
DYEAR=1900
DGENRE=Punk Rock
TTITLE0=Leitbild
TTITLE1=Unternehmensziele
TTITLE2=Organisation
TTITLE3=Mensch_und_Sachmittel
TTITLE4=Aufbau_Ablauf_etc
TTITLE5=Organisationsformen
TTITLE6=Darstellung_Arbeitsablaufe
TTITLE7=Kritischer_Weg
TTITLE8=Projektorganisation
TTITLE9=Projektsteuerung
TTITLE10=Fuehrungsverhalten
TTITLE11=Gruppenpsychologie
EXTD=
EXTT0=
EXTT1=
EXTT2=
EXTT3=
EXTT4=
EXTT5=
EXTT6=
EXTT7=
EXTT8=
EXTT9=
EXTT10=
EXTT11=
PLAYORDER=
